<svg width="28" height="28" viewBox="0 0 28 28" fill="none" xmlns="http://www.w3.org/2000/svg">
<path d="M11.6667 11.7892C11.6667 11.6199 11.7 11.4522 11.7648 11.2958C11.8296 11.1394 11.9245 10.9973 12.0443 10.8776C12.164 10.7579 12.3061 10.6629 12.4625 10.5981C12.6189 10.5333 12.7865 10.5 12.9558 10.5H15.0442C15.2135 10.5 15.3811 10.5333 15.5375 10.5981C15.6939 10.6629 15.836 10.7579 15.9557 10.8776C16.0755 10.9973 16.1704 11.1394 16.2352 11.2958C16.3 11.4522 16.3333 11.6199 16.3333 11.7892V23.2108C16.3333 23.5527 16.1975 23.8806 15.9557 24.1224C15.714 24.3642 15.3861 24.5 15.0442 24.5H12.9558C12.6139 24.5 12.286 24.3642 12.0443 24.1224C11.8025 23.8806 11.6667 23.5527 11.6667 23.2108V11.7892ZM19.8333 4.78917C19.8333 4.61987 19.8667 4.45223 19.9315 4.29582C19.9963 4.13942 20.0912 3.9973 20.2109 3.87759C20.4527 3.63582 20.7806 3.5 21.1225 3.5H23.2108C23.3801 3.5 23.5478 3.53335 23.7042 3.59813C23.8606 3.66292 24.0027 3.75788 24.1224 3.87759C24.2421 3.9973 24.3371 4.13942 24.4019 4.29582C24.4667 4.45223 24.5 4.61987 24.5 4.78917V23.2108C24.5 23.5527 24.3642 23.8806 24.1224 24.1224C23.8806 24.3642 23.5527 24.5 23.2108 24.5H21.1225C20.7806 24.5 20.4527 24.3642 20.2109 24.1224C19.9692 23.8806 19.8333 23.5527 19.8333 23.2108V4.78917ZM3.5 22.1667C3.5 22.7855 3.74583 23.379 4.18342 23.8166C4.621 24.2542 5.21449 24.5 5.83333 24.5C6.45217 24.5 7.04566 24.2542 7.48325 23.8166C7.92083 23.379 8.16667 22.7855 8.16667 22.1667C8.16667 21.5478 7.92083 20.9543 7.48325 20.5168C7.04566 20.0792 6.45217 19.8333 5.83333 19.8333C5.21449 19.8333 4.621 20.0792 4.18342 20.5168C3.74583 20.9543 3.5 21.5478 3.5 22.1667Z" stroke="#FAF3F1" stroke-width="2" stroke-linecap="round" stroke-linejoin="round"/>
</svg>
