<svg width="28" height="28" viewBox="0 0 28 28" fill="none" xmlns="http://www.w3.org/2000/svg">
<path fill-rule="evenodd" clip-rule="evenodd" d="M14.8248 2.67508C14.606 2.45636 14.3093 2.3335 14 2.3335C13.6906 2.3335 13.3939 2.45636 13.1751 2.67508L5.00847 10.8417L2.67514 13.1751C2.56371 13.2827 2.47483 13.4114 2.41369 13.5538C2.35254 13.6961 2.32036 13.8492 2.31901 14.0041C2.31767 14.159 2.34719 14.3126 2.40585 14.456C2.46451 14.5994 2.55114 14.7297 2.66068 14.8392C2.77022 14.9487 2.90048 15.0354 3.04386 15.094C3.18724 15.1527 3.34087 15.1822 3.49577 15.1809C3.65068 15.1795 3.80377 15.1473 3.94611 15.0862C4.08845 15.0251 4.21718 14.9362 4.32481 14.8247L4.66664 14.4829V22.1666C4.66664 23.0948 5.03539 23.9851 5.69177 24.6415C6.34814 25.2978 7.23838 25.6666 8.16664 25.6666H19.8333C20.7616 25.6666 21.6518 25.2978 22.3082 24.6415C22.9646 23.9851 23.3333 23.0948 23.3333 22.1666V14.4829L23.6751 14.8247C23.8952 15.0373 24.1899 15.1549 24.4958 15.1522C24.8017 15.1495 25.0943 15.0268 25.3106 14.8105C25.5269 14.5942 25.6496 14.3016 25.6523 13.9957C25.6549 13.6898 25.5373 13.3951 25.3248 13.1751L14.8248 2.67508Z" fill="#FAF3F1"/>
</svg>
