<svg width="28" height="28" viewBox="0 0 28 28" fill="none" xmlns="http://www.w3.org/2000/svg">
<path fill-rule="evenodd" clip-rule="evenodd" d="M13.5288 19.2051C13.6247 19.1208 13.7031 19.0144 13.7556 18.8901L15.6806 14.3401C15.734 14.2139 15.7571 14.0768 15.7478 13.9401L14.9932 2.74006C14.9781 2.51686 14.878 2.30794 14.7136 2.15623C14.5492 2.00453 14.3329 1.92156 14.1092 1.92439C13.8855 1.92721 13.6714 2.01561 13.5108 2.17141C13.3503 2.32722 13.2555 2.5386 13.246 2.76211L12.7777 13.9138L12.1085 18.2636C12.6794 18.3974 13.1833 18.7314 13.5288 19.2051ZM13.9999 13.6489C14.0927 13.6489 14.1818 13.6857 14.2474 13.7514C14.313 13.817 14.3499 13.906 14.3499 13.9989C14.3499 14.0917 14.313 14.1807 14.2474 14.2463C14.1818 14.312 14.0927 14.3489 13.9999 14.3489C13.9071 14.3489 13.8181 14.312 13.7524 14.2463C13.6868 14.1807 13.6499 14.0917 13.6499 13.9989C13.6499 13.906 13.6868 13.817 13.7524 13.7514C13.8181 13.6857 13.9071 13.6489 13.9999 13.6489Z" fill="#FAF3F1"/>
<path d="M14 21.3495C14 21.9992 13.7419 22.6224 13.2824 23.0819C12.8229 23.5413 12.1998 23.7995 11.55 23.7995C10.9002 23.7995 10.277 23.5413 9.81756 23.0819C9.3581 22.6224 9.09998 21.9992 9.09998 21.3495V20.6495C9.09998 19.9997 9.3581 19.3765 9.81756 18.9171C10.277 18.4576 10.9002 18.1995 11.55 18.1995C12.1998 18.1995 12.8229 18.4576 13.2824 18.9171C13.7419 19.3765 14 19.9997 14 20.6495V21.3495Z" stroke="#FAF3F1" stroke-width="1.25" stroke-linecap="round" stroke-linejoin="round"/>
<path fill-rule="evenodd" clip-rule="evenodd" d="M14.4711 19.2054C14.3728 19.1186 14.2953 19.0108 14.2443 18.89L12.3193 14.34C12.2659 14.2139 12.2429 14.077 12.2521 13.9403L13.0067 2.74031C13.0218 2.5171 13.1219 2.30818 13.2863 2.15648C13.4507 2.00477 13.667 1.92181 13.8907 1.92463C14.1144 1.92745 14.3285 2.01585 14.4891 2.17166C14.6496 2.32746 14.7444 2.53884 14.7539 2.76236L15.2222 13.9141L15.8914 18.2639C15.3206 18.3976 14.8166 18.7317 14.4711 19.2054ZM14 13.6491C13.9072 13.6491 13.8181 13.686 13.7525 13.7516C13.6869 13.8173 13.65 13.9063 13.65 13.9991C13.65 14.0919 13.6869 14.181 13.7525 14.2466C13.8181 14.3122 13.9072 14.3491 14 14.3491C14.0928 14.3491 14.1818 14.3122 14.2475 14.2466C14.3131 14.181 14.35 14.0919 14.35 13.9991C14.35 13.9063 14.3131 13.8173 14.2475 13.7516C14.1818 13.686 14.0928 13.6491 14 13.6491Z" fill="#FAF3F1"/>
<path d="M14 21.35C14 21.9997 14.2581 22.6229 14.7176 23.0824C15.1771 23.5418 15.8002 23.8 16.45 23.8C17.0998 23.8 17.7229 23.5418 18.1824 23.0824C18.6419 22.6229 18.9 21.9997 18.9 21.35V20.65C18.9 20.0002 18.6419 19.377 18.1824 18.9175C17.7229 18.4581 17.0998 18.2 16.45 18.2C15.8002 18.2 15.1771 18.4581 14.7176 18.9175C14.2581 19.377 14 20.0002 14 20.65V21.35Z" stroke="#FAF3F1" stroke-width="1.25" stroke-linecap="round" stroke-linejoin="round"/>
</svg>
